<?xml version="1.0" standalone="no"?><!DOCTYPE svg PUBLIC "-//W3C//DTD SVG 1.1//EN" "http://www.w3.org/Graphics/SVG/1.1/DTD/svg11.dtd"><svg t="1501461189668" class="icon" style="" viewBox="0 0 1024 1024" version="1.1" xmlns="http://www.w3.org/2000/svg" p-id="2956" xmlns:xlink="http://www.w3.org/1999/xlink" width="200" height="200"><defs><style type="text/css"></style></defs><path d="M84.828 199.428s420.408-61.027 411.367 375.203c0 0-424.928 74.588-411.367-375.203zM525.836 501.608s24.445-392.537 418.029-301.597c0 0-13.014 399.206-418.029 301.597z" fill="#BBFFBB" p-id="2957"></path><path d="M548.01 942.435v-404.41c37.143 5.998 72.24 9.042 104.703 9.042 106.49 0 188.732-31.959 244.45-94.983 93.558-105.83 75.808-259.352 75.009-265.837l-2.526-20.428-20.286-3.5c-1.228-0.212-30.578-5.187-74.024-5.187-50.567 0-125.783 6.891-196.953 39.746-54.527 25.161-102.633 84.14-142.993 175.286-6.495 14.663-12.239 28.951-17.253 42.323-8.301-27.432-18.904-52.854-31.694-75.909-24.013-43.267-55.74-78.243-94.305-103.955-94.274-62.85-185.477-76.041-245.382-76.041-43.892 0-72.066 7.14-73.246 7.448l-18.877 4.871-1.805 19.418c-0.208 2.18-4.845 54.215 6.654 120.182 6.813 39.068 17.91 75.099 32.98 107.105 19.211 40.794 44.946 75.099 76.48 101.965 45.295 38.587 93.278 66.973 142.613 84.38 38.957 13.741 78.9 20.709 118.714 20.709 24.93 0 46.221-2.775 62.273-5.75v323.525m-62.273-373.25c-77.988 0-153.813-30.9-225.355-91.849-25.305-21.55-46.141-49.36-61.922-82.642-12.954-27.312-22.583-58.37-28.613-92.31-6.273-35.314-7.311-66.534-7.131-85.988 10.02-1.239 23.462-2.34 39.508-2.34 52.245 0 131.887 11.573 214.609 66.724 30.926 20.615 56.553 48.878 76.173 84.003 16.108 28.837 28.28 62.379 36.189 99.7 8.712 41.15 10.275 78 10.239 99.605a285.17 285.17 0 0 1-53.697 5.096z m425.093-153.57c-44.728 50.413-112.907 75.978-202.644 75.978-30.466 0-63.712-2.976-99.138-8.858 6.702-22.059 17.66-54.637 32.88-88.893 34.166-76.9 73.992-127.594 115.168-146.598 62.033-28.63 128.705-34.639 173.708-34.639 17.227 0 31.965 0.874 42.996 1.843 0.89 41.652-4.419 135.163-62.97 201.167z" fill="#1FB21F" p-id="2958"></path></svg>