<?xml version="1.0" standalone="no"?><!DOCTYPE svg PUBLIC "-//W3C//DTD SVG 1.1//EN" "http://www.w3.org/Graphics/SVG/1.1/DTD/svg11.dtd"><svg t="1501462343591" class="icon" style="" viewBox="0 0 1024 1024" version="1.1" xmlns="http://www.w3.org/2000/svg" p-id="9720" xmlns:xlink="http://www.w3.org/1999/xlink" width="200" height="200"><defs><style type="text/css"></style></defs><path d="M741.558 258.657h-558.763c-18.16 0-32.878 14.941-32.878 33.363v400.419c0 18.421 14.699 33.362 32.878 33.362h164.336c18.16 0 32.878-14.941 32.878-33.362s-14.718-33.363-32.878-33.363h-118.824c-6.999-0.051-12.652-5.737-12.652-12.743 0-0.034 0-0.068 0-0.102v-308.011c0-7.071 5.656-12.839 12.653-12.839h467.738c6.996 0 12.653 5.768 12.653 12.839v308.017c0 7.071-5.657 12.839-12.653 12.839h-217.421c-0.316 0-0.614 0.075-0.93 0.093-8.038 0.13-16.038 3.163-22.272 9.303l-141.747 139.161c-13.058 12.906-13.396 33.884-0.763 47.206 5.939 6.265 14.32 10.164 23.613 10.164 8.908 0 16.979-3.583 22.851-9.386l132.18-129.836h250.002c18.16 0 32.878-14.941 32.878-33.362v-400.4c0-18.421-14.719-33.363-32.879-33.363z" p-id="9721"></path><path d="M841.086 158.553l-0.465 0.037-0.446-0.037h-525.29c-18.42 0-33.865 15.313-33.492 34.013 0.335 18.142 14.922 32.729 32.859 32.729h481.284c6.996 0 12.653 5.731 12.653 12.839v320.168c0 18.718 15.072 34.385 33.492 34.032 17.863-0.353 32.246-15.165 32.246-33.362v-367.057c0-18.42-14.719-33.362-32.878-33.362h0.037z" p-id="9722"></path></svg>