<?xml version="1.0" standalone="no"?><!DOCTYPE svg PUBLIC "-//W3C//DTD SVG 1.1//EN" "http://www.w3.org/Graphics/SVG/1.1/DTD/svg11.dtd"><svg t="1501461394406" class="icon" style="" viewBox="0 0 1024 1024" version="1.1" xmlns="http://www.w3.org/2000/svg" p-id="3756" xmlns:xlink="http://www.w3.org/1999/xlink" width="200" height="200"><defs><style type="text/css"></style></defs><path d="M75.436 344.984l442.499-226.645 437.102 215.853-437.102 242.834z" fill="#D4E4FF" p-id="3757"></path><path d="M253.515 436.722v329.175l259.023 140.305 275.213-140.305V415.136z" fill="#D4E4FF" p-id="3758"></path><path d="M517.935 609.112a79.332 79.332 0 0 1-36.592-8.926L41.418 371.787a26.987 26.987 0 0 1 0-47.898L481.342 95.49c22.913-11.899 50.272-11.899 73.185 0l439.924 228.399a26.987 26.987 0 0 1 0 47.898L554.527 600.186a79.345 79.345 0 0 1-36.592 8.926M112.406 347.838l393.802 204.456a25.458 25.458 0 0 0 23.452 0l393.802-204.456-393.801-204.456a25.458 25.458 0 0 0-23.452 0L112.406 347.838zM909.708 764.201c-14.899 0-26.982-12.082-26.982-26.982V521.366c0-14.899 12.082-26.982 26.982-26.982 14.899 0 26.982 12.082 26.982 26.982v215.853c-0.001 14.9-12.083 26.982-26.982 26.982" fill="#4F7DDB" p-id="3759"></path><path d="M814.7 774.807c0.022-0.394 0.027-0.788 0.032-1.187V584.684c0-14.899-12.082-26.982-26.982-26.982s-26.982 12.082-26.982 26.982v172.483l-230.38 119.609a27.07 27.07 0 0 1-24.909 0L275.095 757.161V584.678c0-14.899-12.082-26.982-26.982-26.982-14.905 0-26.982 12.082-26.982 26.982v188.936c0 0.399 0.011 0.793 0.032 1.187 0 0.049 0 0.103 0.005 0.156 0.491 9.233 5.709 17.97 14.511 22.54l244.934 127.17a80.974 80.974 0 0 0 37.321 9.098 80.992 80.992 0 0 0 37.321-9.098l244.928-127.164c8.801-4.571 14.02-13.307 14.511-22.54 0.001-0.054 0.006-0.102 0.006-0.156" fill="#4F7DDB" p-id="3760"></path></svg>