<?xml version="1.0" standalone="no"?><!DOCTYPE svg PUBLIC "-//W3C//DTD SVG 1.1//EN" "http://www.w3.org/Graphics/SVG/1.1/DTD/svg11.dtd"><svg t="1501576014761" class="icon" style="" viewBox="0 0 1024 1024" version="1.1" xmlns="http://www.w3.org/2000/svg" p-id="5728" xmlns:xlink="http://www.w3.org/1999/xlink" width="200" height="200"><defs><style type="text/css"></style></defs><path d="M512.926092 0C230.193753 0 0.985444 229.208309 0.985444 511.952928c0 282.740526 229.208309 511.957021 511.940648 511.957021 282.756899 0 511.967254-229.216495 511.967254-511.957021 0-282.744619-229.210355-511.952928-511.967254-511.952928z m0 184.299493c113.115244 0 204.790176 91.689259 204.790176 204.78199 0 113.098871-91.674932 204.786083-204.790176 204.786083-113.076358 0-204.76357-91.687212-204.76357-204.786083-0.001023-113.092731 91.686189-204.78199 204.76357-204.78199z m0.051165 798.666952c-146.271388 0-276.963962-66.680678-363.353518-171.298388 86.391602-95.498004 217.064734-156.36528 363.302353-156.36528 146.277528 0 276.978289 60.883649 363.369891 156.404166C789.905404 916.302139 659.228179 982.966445 512.977257 982.966445z" p-id="5729" fill="#8a8a8a"></path></svg>