<?xml version="1.0" standalone="no"?><!DOCTYPE svg PUBLIC "-//W3C//DTD SVG 1.1//EN" "http://www.w3.org/Graphics/SVG/1.1/DTD/svg11.dtd"><svg t="1501463012089" class="icon" style="" viewBox="0 0 1024 1024" version="1.1" xmlns="http://www.w3.org/2000/svg" p-id="11042" xmlns:xlink="http://www.w3.org/1999/xlink" width="200" height="200"><defs><style type="text/css"></style></defs><path d="M441.687 547.156h-316.406c-19.406 0-35.156 15.75-35.156 35.156v316.406c0 19.406 15.75 35.156 35.156 35.156h316.406c19.406 0 35.156-15.75 35.156-35.156v-316.406c0-19.406-15.703-35.156-35.156-35.156zM420.594 877.625h-274.219v-274.266h274.219v274.266z" p-id="11043" fill="#1296db"></path><path d="M740.234 476.844c106.828 0 193.359-86.578 193.359-193.359s-86.531-193.359-193.359-193.359c-106.781 0-193.359 86.578-193.359 193.359 0 106.828 86.578 193.359 193.359 193.359zM740.234 146.375c75.609 0 137.156 61.5 137.156 137.109s-61.5 137.109-137.156 137.109c-75.563 0-137.109-61.5-137.109-137.109 0-75.563 61.547-137.109 137.109-137.109z" p-id="11044" fill="#1296db"></path><path d="M898.438 547.156h-316.406c-19.406 0-35.156 15.75-35.156 35.156v316.406c0 19.406 15.75 35.156 35.156 35.156h316.406c19.406 0 35.156-15.75 35.156-35.156v-316.406c0-19.406-15.75-35.156-35.156-35.156zM877.391 877.625h-274.266v-274.266h274.266v274.266z" p-id="11045" fill="#1296db"></path><path d="M441.687 90.125h-316.406c-19.406 0-35.156 15.75-35.156 35.156v316.406c0 19.406 15.75 35.156 35.156 35.156h316.406c19.406 0 35.156-15.75 35.156-35.156v-316.406c0-19.406-15.703-35.156-35.156-35.156zM420.594 420.594h-274.219v-274.219h274.219v274.219z" p-id="11046" fill="#1296db"></path></svg>