<?xml version="1.0" standalone="no"?><!DOCTYPE svg PUBLIC "-//W3C//DTD SVG 1.1//EN" "http://www.w3.org/Graphics/SVG/1.1/DTD/svg11.dtd"><svg t="1501462005678" class="icon" style="" viewBox="0 0 1024 1024" version="1.1" xmlns="http://www.w3.org/2000/svg" p-id="6396" xmlns:xlink="http://www.w3.org/1999/xlink" width="200" height="200"><defs><style type="text/css"></style></defs><path d="M749.323654 378.213062H499.348411c-12.543215 0-22.278757 9.733535-22.278757 22.276751s9.733535 22.278757 22.278757 22.278757h249.874897c11.838788 0 22.27675-9.733535 22.37509-22.278757 0.002007-12.543215-9.731528-22.27675-22.274744-22.276751zM269.546673 545.999138h479.678642c11.838788 0 22.27675-9.733535 22.276751-22.276751 0-12.545222-9.735542-22.278757-22.276751-22.278757H269.546673c-12.543215 0-22.278757 9.733535-22.278758 22.278757 0 12.543215 9.733535 22.27675 22.278758 22.276751zM498.645991 296.728322h250.577317c11.838788 0 22.27675-9.733535 22.276751-22.276751s-9.735542-22.278757-22.276751-22.278757H498.645991c-12.543215 0-22.278757 9.735542-22.278757 22.278757 0.002007 12.541208 9.735542 22.27675 22.278757 22.276751z" fill="" p-id="6397"></path><path d="M882.889831 745.990169a21.658621 21.658621 0 0 0 0-7.232919V129.642659c0-36.927226-29.903025-66.832258-66.834265-66.832258H206.224508c-36.929233 0-66.834265 29.905032-66.834265 66.832258v765.174265c0 36.929233 29.905032 66.834265 66.834265 66.834265H681.68863l3.355561-3.508087a25.67847 25.67847 0 0 0 4.37106-3.516114l187.85522-196.988687c0.682351-0.766641 1.308508-1.575428 1.884493-2.416325l3.73286-3.903449v-5.328358zM173.523844 894.816924V129.642659c0-18.030119 14.670545-32.698657 32.700664-32.698657h609.831058c18.030119 0 32.700664 14.668538 32.700664 32.698657v591.068416H717.211016c-36.927226 0-66.834265 29.903025-66.834265 66.830251v139.976262H206.224508c-18.032126 0-32.700664-14.668538-32.700664-32.700664z m510.986508 14.505978v-121.781576c0-18.028112 14.670545-32.69665 32.700664-32.69665h115.068447l-147.769111 154.478226z" fill="" p-id="6398"></path><path d="M298.044858 398.382552h84.194075c27.797772 0 50.076529-22.97917 50.076529-50.074522 0-22.981177-16.055316-43.150668-38.334073-48.770028 9.031115-11.140382 13.948055-25.086431 13.948055-39.638567 0-35.524393-29.202612-65.429425-65.427417-65.429425-36.226813 0-65.429425 29.202612-65.429425 65.429425 0 14.650475 4.91694 27.797772 13.247642 38.936147-22.780486 2.80968-42.347902 23.683597-42.347902 49.472448-0.002007 27.795765 22.97917 50.074522 50.072516 50.074522z m46.060693-176.81719c20.873917 0 38.334073 17.35981 38.334073 38.334073 0 20.87191-17.35981 38.334073-38.334073 38.334073-20.972256 0-38.334073-17.361817-38.334073-38.334073 0-20.873917 17.462163-38.334073 38.334073-38.334073z m-45.960348 103.059071h84.196082c13.245635 0 22.97917 10.435955 22.979171 22.981177s-10.437962 22.97917-22.979171 22.97917h-84.196082c-13.245635 0-22.97917-10.435955-22.97917-22.97917s9.733535-22.981177 22.97917-22.981177zM596.089715 630.895633H271.653933c-12.543215 0-22.278757 9.733535-22.278758 22.278757 0 12.543215 9.735542 22.278757 22.278758 22.278757h324.435782c11.838788 0 22.27675-9.735542 22.276751-22.278757-0.002007-12.545222-9.733535-22.278757-22.276751-22.278757z" fill="" p-id="6399"></path></svg>