<?xml version="1.0" standalone="no"?><!DOCTYPE svg PUBLIC "-//W3C//DTD SVG 1.1//EN" "http://www.w3.org/Graphics/SVG/1.1/DTD/svg11.dtd"><svg t="1501462149708" class="icon" style="" viewBox="0 0 1024 1024" version="1.1" xmlns="http://www.w3.org/2000/svg" p-id="8278" xmlns:xlink="http://www.w3.org/1999/xlink" width="200" height="200"><defs><style type="text/css"></style></defs><path d="M235.613 144.873h552.336c44.055 0 83.507 17.754 112.659 46.466 28.606 28.99 46.32 68.791 46.469 112.727l-0.002 416.374c0 43.179-18.411 83.289-46.687 111.563l-2.191 2.191c-28.551 27.731-67.538 44.854-110.524 44.933l-552.061-0.001c-43.922-0.113-83.603-18.175-112.113-47.237l-0.546 0.113c-28.391-28.739-45.951-68.233-46.029-111.827l0.001-416.617c0-43.617 17.754-83.069 46.466-112.001l1.095-0.658c28.494-28.494 67.726-46.028 111.124-46.028zM567.233 312.765l-148.166 384.005c-0.819 2.097-1.294 4.526-1.294 7.065 0 8.404 5.2 15.596 12.557 18.532 2.319 0.954 4.857 1.481 7.516 1.481 8.417 0 15.603-5.273 18.436-12.695l148.212-383.92c0.996-2.252 1.577-4.877 1.577-7.639 0-8.391-5.358-15.531-12.838-18.183-2.319-0.948-4.858-1.474-7.516-1.474-8.417 0-15.603 5.273-18.436 12.695zM401.313 400.437l-188.057 93.371c-6.578 3.411-10.997 10.171-10.997 17.961 0 3.366 0.825 6.539 2.283 9.329 2.076 4.512 5.927 8.036 10.657 9.686l186.114 92.78c9.863 5.26 21.918 1.315 27.178-8.548 4.604-9.863 0.876-22.356-9.425-26.96l-152.112-76.275 152.112-75.837c6.788-3.403 11.364-10.307 11.364-18.279 0-3.152-0.716-6.138-1.993-8.801-3.243-6.438-9.92-10.861-17.63-10.861-3.483 0-6.755 0.903-9.595 2.487zM604.495 435.945l152.549 75.837-152.549 76.275c-6.495 3.379-10.852 10.057-10.852 17.754 0 11.018 8.931 19.949 19.949 19.949 3.321 0 6.451-0.813 9.206-2.246l187.29-93.538c4.695-2.348 8.259-6.375 9.946-11.276 0.327-0.323 1.079-3.398 1.079-6.649 0-7.877-4.42-14.721-10.915-18.188l-187.51-93.425c-2.741-1.533-6.012-2.436-9.495-2.436-7.711 0-14.386 4.423-17.632 10.87-1.373 2.725-2.149 5.806-2.149 9.068 0 7.824 4.457 14.608 10.971 17.951zM787.949 211.283h-552.336c-25.449 0.197-48.398 10.738-64.878 27.621l-0.219-0.224c-16.391 16.548-26.522 39.325-26.522 64.468 0 0.143 0 0.287 0.001 0.43v416.86c0 24.987 9.863 47.782 26.522 64.659h0.438c16.605 16.713 39.574 27.087 64.966 27.181l552.029-0.001c24.788-0.038 47.284-9.824 63.867-25.725l1.23-1.453c16.541-16.79 26.804-39.803 26.964-65.213l-0.004-416.327c-0.368-50.738-41.34-91.785-92.013-92.275z" p-id="8279"></path></svg>