<?xml version="1.0" standalone="no"?><!DOCTYPE svg PUBLIC "-//W3C//DTD SVG 1.1//EN" "http://www.w3.org/Graphics/SVG/1.1/DTD/svg11.dtd"><svg t="1501462227078" class="icon" style="" viewBox="0 0 1024 1024" version="1.1" xmlns="http://www.w3.org/2000/svg" p-id="9061" xmlns:xlink="http://www.w3.org/1999/xlink" width="200" height="200"><defs><style type="text/css"></style></defs><path d="M311.424 164.544c-191.936 110.72-257.664 356.16-146.88 548.096 110.784 191.872 356.16 257.6 548.096 146.88 191.872-110.72 257.6-356.224 146.88-548.096C748.608 119.488 503.232 53.696 311.424 164.544zM715.52 800.512c-8.64 6.144-17.6 12.032-27.008 17.344s-18.88 10.24-28.48 14.656L480.192 521.088 535.808 488.96 715.52 800.512zM753.344 769.6l-176-304.704 41.728-24.064 168.384 291.776C777.152 745.728 765.76 758.016 753.344 769.6zM372.736 527.552l51.008-168.384 171.392 40.064L372.736 527.552zM438.528 545.216 614.4 849.984c-16.128 4.864-32.64 8.64-49.088 11.136l-168.448-291.84L438.528 545.216zM817.728 688.512 624.768 354.24 391.616 303.552 318.912 530.752l192.96 334.336c-121.92-0.128-240.448-63.36-305.728-176.512C108.736 519.68 166.592 303.744 335.424 206.208c168.896-97.408 384.832-39.616 482.368 129.344C883.136 448.64 878.528 582.848 817.728 688.512z" p-id="9062"></path></svg>